<svg id="Layer_1" enable-background="new 0 0 478.014 478.014" viewBox="0 0 478.014 478.014" xmlns="http://www.w3.org/2000/svg" width="300" height="300" version="1.1" xmlns:xlink="http://www.w3.org/1999/xlink" xmlns:svgjs="http://svgjs.dev/svgjs"><g width="100%" height="100%" transform="matrix(1,0,0,1,0,0)"><g><path d="m363.122 306.934c-4.744-21.463-16.344-41.184-32.937-55.822-16.411-14.477-37.155-23.466-58.859-25.604v-17.031c9.151-4.367 17.189-10.72 23.529-18.529.88 3.292 5.286 4.701 7.912 2.465 22.303-17.848 26.323-49.588 27.334-75.246.002-.066.004-.132.004-.197 0-29.676-15.271-55.86-38.393-71.201-.403-25.722-21.901-46.384-47.695-45.754-24.969 0-45.405 19.759-46.507 44.462-25.668 16.057-40.208 45.859-38.425 75.944-6.495 3.657-10.899 10.608-10.899 18.578 0 11.755 9.563 21.317 21.317 21.317h6.211c3.702 18.944 15.312 35.09 31.251 44.837v20.355c-21.704 2.138-42.448 11.127-58.859 25.604-16.594 14.639-28.193 34.359-32.937 55.822-13.4 3.35-22.533 17.87-19.626 31.452l22.6 117.518c2.464 12.812 13.721 22.11 26.767 22.11h188.474c13.046 0 24.303-9.299 26.767-22.109l6.292-32.717c.521-2.712-1.254-5.333-3.966-5.854-2.717-.521-5.333 1.255-5.854 3.966l-6.292 32.717c-1.56 8.111-8.687 13.998-16.946 13.998h-188.478c-8.26 0-15.387-5.888-16.946-13.999l-22.6-117.518c-2.103-9.651 5.471-19.739 15.293-20.424.547-.052 237.27.026 237.42.043 9.633.94 16.915 10.888 14.853 20.381l-5.516 28.684c-.521 2.712 1.254 5.333 3.966 5.854 2.71.525 5.333-1.254 5.854-3.966l5.516-28.684c1.541-8.013-3.403-24.132-19.625-31.452zm-188.605-156.618h-5.015c-6.24 0-11.317-5.077-11.317-11.317-.109-7.021 5.976-11.331 12.377-11.316h3.883c-.001-.001.024 21.613.072 22.633zm10.405 4.282c-.304-2.455-.468-4.839-.478-7.301v-21.791c15.149-3.003 29.451-10.078 41.051-20.271 8.408 11.453 20.285 18.351 34.801 19.916 8.028 1.372 16.432.823 23.833 4.13 8.503 3.834 14.898 12.382 15.721 21.783-1.797 31.685-30.132 55.942-60.882 53.904-27.169-1.299-50.725-22.826-54.046-50.37zm76.403 57.727v28.448c.146 11.895-9.984 22.302-22.181 22.181-12.198.122-22.327-10.286-22.181-22.181v-30.583c5.901 3.984 30.751 6.146 44.362 2.135z" fill="#060b66" fill-opacity="1" data-original-color="#000000ff" stroke="none" stroke-opacity="1"/><path d="m200.737 373.684c-1.58-2.265-4.697-2.821-6.961-1.24l-22.156 15.453c-2.82 1.85-2.819 6.351 0 8.201l22.156 15.453c2.238 1.569 5.372 1.04 6.961-1.24 1.58-2.265 1.024-5.382-1.241-6.961l-16.276-11.353 16.276-11.353c2.266-1.578 2.821-4.695 1.241-6.96z" fill="#060b66" fill-opacity="1" data-original-color="#000000ff" stroke="none" stroke-opacity="1"/><path d="m277.551 410.311c1.589 2.281 4.723 2.809 6.961 1.24l22.156-15.453c2.82-1.85 2.819-6.351 0-8.201l-22.156-15.453c-2.266-1.582-5.381-1.025-6.961 1.24s-1.024 5.382 1.241 6.961l16.276 11.353-16.276 11.353c-2.266 1.578-2.821 4.695-1.241 6.96z" fill="#060b66" fill-opacity="1" data-original-color="#000000ff" stroke="none" stroke-opacity="1"/><path d="m245.732 364.265-20.737 51.745c-1.027 2.563.218 5.475 2.781 6.502 2.498 1.019 5.475-.192 6.501-2.781l20.737-51.745c1.027-2.563-.218-5.475-2.781-6.502-2.561-1.025-5.473.219-6.501 2.781z" fill="#060b66" fill-opacity="1" data-original-color="#000000ff" stroke="none" stroke-opacity="1"/><ellipse cx="367.104" cy="393.934" rx="6.411" ry="6.411" transform="matrix(.055 -.999 .999 .055 -46.528 738.691)" fill="#060b66" fill-opacity="1" data-original-color="#000000ff" stroke="none" stroke-opacity="1"/></g><g/><g/><g/><g/><g/><g/><g/><g/><g/><g/><g/><g/><g/><g/><g/></g></svg>